# xmcd
# 
# Track frame offsets:
#     150
#     22405
#     39962
#     59332
#     76000
#     94917
#     114337
#     129390
#     145365
#     169672
#     189590
#     208157
# 
# Disc length: 3039
# 
# Revision: 1
# Processed by: cddbd v1.5.2PL0 Copyright (c) Steve Scherf et al.
# Submitted via: BonkEnc v1.0.5
# 
DISCID=a40bdd0c
DTITLE=ビリー・バンバン - 時は今、君の中
DYEAR=2004
DGENRE=JPop
TTITLE0=夢を紡ぐ季節 〜時は今、君の中〜
TTITLE1=遅すぎた季節
TTITLE2=砂漠の薔薇 Rose de sable
TTITLE3=今は、このまま
TTITLE4=砂漠の薔薇 〜Susumuバージョン〜
TTITLE5=めぐり逢い
TTITLE6=さよならをするために 〜アコースティックバージョン〜
TTITLE7=琥珀色の日々
TTITLE8=AGAIN 〜ラブソングをもう一度〜
TTITLE9=エアメール
TTITLE10=かげふみ
TTITLE11=白いブランコ
EXTD=YEAR: 2004
EXTT0=
EXTT1=
EXTT2=
EXTT3=
EXTT4=
EXTT5=
EXTT6=
EXTT7=
EXTT8=
EXTT9=
EXTT10=
EXTT11=
PLAYORDER=
